<svg width="1608" height="304" viewBox="0 0 1608 304" fill="none" xmlns="http://www.w3.org/2000/svg">
<g clip-path="url(#clip0_4612_756)">
<path d="M152.102 304C68.2326 304 0 235.813 0 151.994C0 68.1842 68.2326 0 152.102 0C235.98 0 304.216 68.1842 304.216 151.994C304.216 235.813 235.98 304 152.102 304ZM152.102 27.6366C83.483 27.6366 27.6563 83.4237 27.6563 151.994C27.6563 220.57 83.483 276.366 152.102 276.366C220.727 276.366 276.563 220.57 276.563 151.994C276.563 83.4237 220.727 27.6366 152.102 27.6366Z" fill="white"/>
<path d="M88.585 238.464L100.717 167.796L49.332 117.736L120.345 107.421L152.099 43.1133L183.859 107.421L254.888 117.736L203.491 167.796L215.638 238.464L152.102 205.097L88.585 238.464ZM160.437 166.239L111.963 158.978L148.949 73.9111L162.477 168.081L148 135.371C120.431 262.526 158.504 98.5901 152.099 84.7491C173.192 261.232 130.871 154.778 118.696 145.085L155.622 101.451L159.417 115.555L143.626 142.321L160.437 166.239Z" fill="white"/>
<path d="M391.135 62.5902H522.73V98.4307H476.284V220.392H437.58V98.4307H391.135V62.5902ZM579.754 155.93V220.392H541.05V156.188C541.05 113.386 572.529 90.1797 612.266 90.1797C613.556 90.1797 615.362 90.1797 617.168 90.4375C618.974 90.6954 621.039 91.2111 622.845 91.4689V128.857C621.555 128.599 620.006 128.341 618.2 128.083C616.394 127.825 614.846 127.567 613.556 127.567C607.105 127.567 601.944 128.341 597.558 129.63C590.333 132.209 583.882 137.108 581.56 144.843C580.27 148.195 579.754 152.063 579.754 155.93ZM636.004 91.4689H674.709V220.392H636.004V91.4689ZM655.356 79.3502C642.197 79.3502 632.908 70.0677 632.908 56.9176C632.908 43.5096 642.197 34.7429 655.356 34.7429C668.774 34.7429 677.547 43.5096 677.547 56.9176C677.547 70.5834 669.032 79.3502 655.356 79.3502ZM740.506 155.93C740.506 175.011 750.053 185.84 769.405 185.84C774.824 185.84 779.726 185.067 783.597 183.262C790.822 180.426 795.724 175.011 798.305 167.533C799.337 163.924 799.853 160.056 799.853 155.93C799.853 151.805 799.337 147.937 798.305 144.327C795.466 136.334 791.08 131.951 783.597 128.341C779.726 126.794 774.824 126.02 769.405 126.02C750.053 126.02 740.506 136.85 740.506 155.93ZM740.506 207.499V271.961H701.802V155.93C701.802 114.675 730.959 90.1797 769.921 90.1797C809.658 90.1797 838.557 116.222 838.557 155.672C838.557 192.287 810.948 221.681 774.308 221.681C766.825 221.681 760.374 220.392 754.956 217.813C749.279 215.493 744.376 211.883 740.506 207.499ZM849.136 62.5902H980.731V98.4307H934.286V220.392H895.581V98.4307H849.136V62.5902ZM1037.76 155.93V220.392H999.051V156.188C999.051 113.386 1030.53 90.1797 1070.27 90.1797C1071.56 90.1797 1073.36 90.1797 1075.17 90.4375C1076.98 90.6954 1079.04 91.2111 1080.85 91.4689V128.857C1079.56 128.599 1078.01 128.341 1076.2 128.083C1074.4 127.825 1072.85 127.567 1071.56 127.567C1065.11 127.567 1059.95 128.341 1055.56 129.63C1048.33 132.209 1041.88 137.108 1039.56 144.843C1038.27 148.195 1037.76 152.063 1037.76 155.93ZM1094.01 91.4689H1132.71V220.392H1094.01V91.4689ZM1113.36 79.3502C1100.2 79.3502 1090.91 70.0677 1090.91 56.9176C1090.91 43.5096 1100.2 34.7429 1113.36 34.7429C1126.78 34.7429 1135.55 43.5096 1135.55 56.9176C1135.55 70.5834 1127.03 79.3502 1113.36 79.3502ZM1198.51 155.93C1198.51 175.011 1208.05 185.84 1227.41 185.84C1232.83 185.84 1237.73 185.067 1241.6 183.262C1248.82 180.426 1253.73 175.011 1256.31 167.533C1257.34 163.924 1257.85 160.056 1257.85 155.93C1257.85 151.805 1257.34 147.937 1256.31 144.327C1253.47 136.334 1249.08 131.951 1241.6 128.341C1237.73 126.794 1232.83 126.02 1227.41 126.02C1208.05 126.02 1198.51 136.85 1198.51 155.93ZM1198.51 207.499V271.961H1159.8V155.93C1159.8 114.675 1188.96 90.1797 1227.92 90.1797C1267.66 90.1797 1296.56 116.222 1296.56 155.672C1296.56 192.287 1268.95 221.681 1232.31 221.681C1224.83 221.681 1218.38 220.392 1212.96 217.813C1207.28 215.493 1202.38 211.883 1198.51 207.499ZM1456.02 123.7V211.367C1437.7 218.329 1414.74 222.197 1395.13 222.197C1344.81 222.197 1311.01 192.029 1311.01 142.264C1311.01 87.8591 1351.52 61.301 1401.06 61.301C1404.41 61.301 1408.03 61.301 1412.16 61.5588C1416.03 61.8166 1420.15 62.3323 1424.54 62.5902C1432.54 63.6216 1440.54 64.653 1448.28 66.9736V106.424C1445.44 105.135 1442.34 104.103 1438.73 103.072C1434.86 102.298 1430.99 101.525 1426.86 100.751C1418.61 99.2043 1409.83 98.6886 1401.32 98.6886C1368.55 98.6886 1349.71 108.745 1349.71 142.264C1349.71 175.011 1367 184.809 1396.42 184.809C1399.51 184.809 1402.87 184.551 1406.48 184.293C1409.83 184.035 1413.45 183.778 1417.32 183.52V159.54H1383.77V123.7H1456.02ZM1539.62 185.84C1558.46 185.84 1569.3 174.753 1569.3 155.93C1569.3 137.108 1558.46 126.02 1539.62 126.02C1520.79 126.02 1509.95 137.108 1509.95 155.93C1509.95 174.753 1520.79 185.84 1539.62 185.84ZM1539.62 221.681C1499.89 221.681 1471.24 195.381 1471.24 155.93C1471.24 115.191 1500.92 90.1797 1539.62 90.1797C1579.62 90.1797 1608 116.48 1608 155.93C1608 196.412 1578.07 221.681 1539.62 221.681Z" fill="white"/>
</g>
<defs>
<clipPath id="clip0_4612_756">
<rect width="1608" height="304" fill="white"/>
</clipPath>
</defs>
</svg>
